<mxfile host="app.diagrams.net" modified="2021-11-24T08:04:38.881Z" agent="5.0 (Windows NT 10.0; Win64; x64) AppleWebKit/537.36 (KHTML, like Gecko) Chrome/96.0.4664.45 Safari/537.36" etag="3umtTlnvbP1X2AMAA4hW" version="15.8.3" type="github">
  <diagram id="j1YyTmq4F1H6BMOMYY6I" name="Page-1">
    <mxGraphModel dx="773" dy="752" grid="1" gridSize="10" guides="1" tooltips="1" connect="1" arrows="1" fold="1" page="1" pageScale="1" pageWidth="850" pageHeight="1100" math="0" shadow="0">
      <root>
        <mxCell id="0" />
        <mxCell id="1" parent="0" />
        <mxCell id="rzye8vJvDMzJoD8c662w-25" style="edgeStyle=orthogonalEdgeStyle;rounded=0;orthogonalLoop=1;jettySize=auto;html=1;entryX=0.5;entryY=0;entryDx=0;entryDy=0;" edge="1" parent="1" source="rzye8vJvDMzJoD8c662w-1" target="rzye8vJvDMzJoD8c662w-4">
          <mxGeometry relative="1" as="geometry" />
        </mxCell>
        <mxCell id="rzye8vJvDMzJoD8c662w-1" value="" style="rounded=1;whiteSpace=wrap;html=1;arcSize=50;" vertex="1" parent="1">
          <mxGeometry x="50" y="20" width="120" height="60" as="geometry" />
        </mxCell>
        <mxCell id="rzye8vJvDMzJoD8c662w-27" style="edgeStyle=orthogonalEdgeStyle;rounded=0;orthogonalLoop=1;jettySize=auto;html=1;" edge="1" parent="1" source="rzye8vJvDMzJoD8c662w-3" target="rzye8vJvDMzJoD8c662w-5">
          <mxGeometry relative="1" as="geometry" />
        </mxCell>
        <mxCell id="rzye8vJvDMzJoD8c662w-3" value="" style="shape=hexagon;perimeter=hexagonPerimeter2;whiteSpace=wrap;html=1;fixedSize=1;" vertex="1" parent="1">
          <mxGeometry x="50" y="220" width="120" height="80" as="geometry" />
        </mxCell>
        <mxCell id="rzye8vJvDMzJoD8c662w-26" style="edgeStyle=orthogonalEdgeStyle;rounded=0;orthogonalLoop=1;jettySize=auto;html=1;entryX=0.5;entryY=0;entryDx=0;entryDy=0;" edge="1" parent="1" source="rzye8vJvDMzJoD8c662w-4" target="rzye8vJvDMzJoD8c662w-3">
          <mxGeometry relative="1" as="geometry" />
        </mxCell>
        <mxCell id="rzye8vJvDMzJoD8c662w-4" value="" style="rounded=0;whiteSpace=wrap;html=1;" vertex="1" parent="1">
          <mxGeometry x="50" y="120" width="120" height="60" as="geometry" />
        </mxCell>
        <mxCell id="rzye8vJvDMzJoD8c662w-28" style="edgeStyle=orthogonalEdgeStyle;rounded=0;orthogonalLoop=1;jettySize=auto;html=1;entryX=0.5;entryY=0;entryDx=0;entryDy=0;" edge="1" parent="1" source="rzye8vJvDMzJoD8c662w-5" target="rzye8vJvDMzJoD8c662w-7">
          <mxGeometry relative="1" as="geometry" />
        </mxCell>
        <mxCell id="rzye8vJvDMzJoD8c662w-5" value="" style="shape=loopLimit;whiteSpace=wrap;html=1;" vertex="1" parent="1">
          <mxGeometry x="60" y="340" width="100" height="80" as="geometry" />
        </mxCell>
        <mxCell id="rzye8vJvDMzJoD8c662w-30" style="edgeStyle=orthogonalEdgeStyle;rounded=0;orthogonalLoop=1;jettySize=auto;html=1;entryX=0.5;entryY=0;entryDx=0;entryDy=0;" edge="1" parent="1" source="rzye8vJvDMzJoD8c662w-6" target="rzye8vJvDMzJoD8c662w-8">
          <mxGeometry relative="1" as="geometry" />
        </mxCell>
        <mxCell id="rzye8vJvDMzJoD8c662w-6" value="" style="shape=loopLimit;whiteSpace=wrap;html=1;flipV=1;" vertex="1" parent="1">
          <mxGeometry x="60" y="560" width="100" height="80" as="geometry" />
        </mxCell>
        <mxCell id="rzye8vJvDMzJoD8c662w-29" style="edgeStyle=orthogonalEdgeStyle;rounded=0;orthogonalLoop=1;jettySize=auto;html=1;" edge="1" parent="1" source="rzye8vJvDMzJoD8c662w-7" target="rzye8vJvDMzJoD8c662w-6">
          <mxGeometry relative="1" as="geometry" />
        </mxCell>
        <mxCell id="rzye8vJvDMzJoD8c662w-7" value="" style="rounded=0;whiteSpace=wrap;html=1;" vertex="1" parent="1">
          <mxGeometry x="50" y="460" width="120" height="60" as="geometry" />
        </mxCell>
        <mxCell id="rzye8vJvDMzJoD8c662w-31" style="edgeStyle=orthogonalEdgeStyle;rounded=0;orthogonalLoop=1;jettySize=auto;html=1;entryX=0.5;entryY=0;entryDx=0;entryDy=0;" edge="1" parent="1" source="rzye8vJvDMzJoD8c662w-8" target="rzye8vJvDMzJoD8c662w-9">
          <mxGeometry relative="1" as="geometry" />
        </mxCell>
        <mxCell id="rzye8vJvDMzJoD8c662w-8" value="" style="rounded=0;whiteSpace=wrap;html=1;" vertex="1" parent="1">
          <mxGeometry x="50" y="680" width="120" height="60" as="geometry" />
        </mxCell>
        <mxCell id="rzye8vJvDMzJoD8c662w-32" style="edgeStyle=orthogonalEdgeStyle;rounded=0;orthogonalLoop=1;jettySize=auto;html=1;" edge="1" parent="1" source="rzye8vJvDMzJoD8c662w-9" target="rzye8vJvDMzJoD8c662w-18">
          <mxGeometry relative="1" as="geometry" />
        </mxCell>
        <mxCell id="rzye8vJvDMzJoD8c662w-9" value="" style="shape=loopLimit;whiteSpace=wrap;html=1;" vertex="1" parent="1">
          <mxGeometry x="60" y="780" width="100" height="80" as="geometry" />
        </mxCell>
        <mxCell id="rzye8vJvDMzJoD8c662w-50" style="edgeStyle=orthogonalEdgeStyle;rounded=0;orthogonalLoop=1;jettySize=auto;html=1;entryX=0.5;entryY=0;entryDx=0;entryDy=0;" edge="1" parent="1" source="rzye8vJvDMzJoD8c662w-10" target="rzye8vJvDMzJoD8c662w-23">
          <mxGeometry relative="1" as="geometry" />
        </mxCell>
        <mxCell id="rzye8vJvDMzJoD8c662w-10" value="" style="shape=loopLimit;whiteSpace=wrap;html=1;flipV=1;" vertex="1" parent="1">
          <mxGeometry x="60" y="1560" width="100" height="80" as="geometry" />
        </mxCell>
        <mxCell id="rzye8vJvDMzJoD8c662w-35" style="edgeStyle=orthogonalEdgeStyle;rounded=0;orthogonalLoop=1;jettySize=auto;html=1;" edge="1" parent="1" source="rzye8vJvDMzJoD8c662w-11" target="rzye8vJvDMzJoD8c662w-16">
          <mxGeometry relative="1" as="geometry" />
        </mxCell>
        <mxCell id="rzye8vJvDMzJoD8c662w-41" style="edgeStyle=orthogonalEdgeStyle;rounded=0;orthogonalLoop=1;jettySize=auto;html=1;entryX=0.5;entryY=0;entryDx=0;entryDy=0;" edge="1" parent="1" source="rzye8vJvDMzJoD8c662w-11" target="rzye8vJvDMzJoD8c662w-40">
          <mxGeometry relative="1" as="geometry">
            <Array as="points">
              <mxPoint x="400" y="1100" />
              <mxPoint x="270" y="1100" />
            </Array>
          </mxGeometry>
        </mxCell>
        <mxCell id="rzye8vJvDMzJoD8c662w-11" value="" style="rhombus;whiteSpace=wrap;html=1;" vertex="1" parent="1">
          <mxGeometry x="350" y="950" width="100" height="100" as="geometry" />
        </mxCell>
        <mxCell id="rzye8vJvDMzJoD8c662w-37" style="edgeStyle=orthogonalEdgeStyle;rounded=0;orthogonalLoop=1;jettySize=auto;html=1;" edge="1" parent="1" source="rzye8vJvDMzJoD8c662w-13" target="rzye8vJvDMzJoD8c662w-14">
          <mxGeometry relative="1" as="geometry" />
        </mxCell>
        <mxCell id="rzye8vJvDMzJoD8c662w-45" style="edgeStyle=orthogonalEdgeStyle;rounded=0;orthogonalLoop=1;jettySize=auto;html=1;entryX=1;entryY=0.25;entryDx=0;entryDy=0;" edge="1" parent="1" source="rzye8vJvDMzJoD8c662w-13" target="rzye8vJvDMzJoD8c662w-43">
          <mxGeometry relative="1" as="geometry">
            <Array as="points">
              <mxPoint x="710" y="1185" />
            </Array>
          </mxGeometry>
        </mxCell>
        <mxCell id="rzye8vJvDMzJoD8c662w-13" value="" style="rhombus;whiteSpace=wrap;html=1;" vertex="1" parent="1">
          <mxGeometry x="660" y="1040" width="100" height="100" as="geometry" />
        </mxCell>
        <mxCell id="rzye8vJvDMzJoD8c662w-38" style="edgeStyle=orthogonalEdgeStyle;rounded=0;orthogonalLoop=1;jettySize=auto;html=1;entryX=0;entryY=0.5;entryDx=0;entryDy=0;" edge="1" parent="1" source="rzye8vJvDMzJoD8c662w-14" target="rzye8vJvDMzJoD8c662w-15">
          <mxGeometry relative="1" as="geometry" />
        </mxCell>
        <mxCell id="rzye8vJvDMzJoD8c662w-14" value="" style="rounded=0;whiteSpace=wrap;html=1;" vertex="1" parent="1">
          <mxGeometry x="800" y="1060" width="120" height="60" as="geometry" />
        </mxCell>
        <mxCell id="rzye8vJvDMzJoD8c662w-39" style="edgeStyle=orthogonalEdgeStyle;rounded=0;orthogonalLoop=1;jettySize=auto;html=1;entryX=0;entryY=0.5;entryDx=0;entryDy=0;" edge="1" parent="1" source="rzye8vJvDMzJoD8c662w-15" target="rzye8vJvDMzJoD8c662w-19">
          <mxGeometry relative="1" as="geometry" />
        </mxCell>
        <mxCell id="rzye8vJvDMzJoD8c662w-46" style="edgeStyle=orthogonalEdgeStyle;rounded=0;orthogonalLoop=1;jettySize=auto;html=1;entryX=1;entryY=0.5;entryDx=0;entryDy=0;" edge="1" parent="1" source="rzye8vJvDMzJoD8c662w-15" target="rzye8vJvDMzJoD8c662w-43">
          <mxGeometry relative="1" as="geometry">
            <Array as="points">
              <mxPoint x="1000" y="1200" />
            </Array>
          </mxGeometry>
        </mxCell>
        <mxCell id="rzye8vJvDMzJoD8c662w-15" value="" style="rhombus;whiteSpace=wrap;html=1;" vertex="1" parent="1">
          <mxGeometry x="950" y="1040" width="100" height="100" as="geometry" />
        </mxCell>
        <mxCell id="rzye8vJvDMzJoD8c662w-36" style="edgeStyle=orthogonalEdgeStyle;rounded=0;orthogonalLoop=1;jettySize=auto;html=1;entryX=0.5;entryY=0;entryDx=0;entryDy=0;" edge="1" parent="1" source="rzye8vJvDMzJoD8c662w-16" target="rzye8vJvDMzJoD8c662w-13">
          <mxGeometry relative="1" as="geometry" />
        </mxCell>
        <mxCell id="rzye8vJvDMzJoD8c662w-16" value="" style="shape=loopLimit;whiteSpace=wrap;html=1;" vertex="1" parent="1">
          <mxGeometry x="520" y="960" width="100" height="80" as="geometry" />
        </mxCell>
        <mxCell id="rzye8vJvDMzJoD8c662w-34" style="edgeStyle=orthogonalEdgeStyle;rounded=0;orthogonalLoop=1;jettySize=auto;html=1;entryX=0.5;entryY=0;entryDx=0;entryDy=0;" edge="1" parent="1" source="rzye8vJvDMzJoD8c662w-17" target="rzye8vJvDMzJoD8c662w-11">
          <mxGeometry relative="1" as="geometry" />
        </mxCell>
        <mxCell id="rzye8vJvDMzJoD8c662w-17" value="" style="shape=loopLimit;whiteSpace=wrap;html=1;" vertex="1" parent="1">
          <mxGeometry x="220" y="870" width="100" height="80" as="geometry" />
        </mxCell>
        <mxCell id="rzye8vJvDMzJoD8c662w-33" style="edgeStyle=orthogonalEdgeStyle;rounded=0;orthogonalLoop=1;jettySize=auto;html=1;entryX=0;entryY=0.5;entryDx=0;entryDy=0;" edge="1" parent="1" source="rzye8vJvDMzJoD8c662w-18" target="rzye8vJvDMzJoD8c662w-17">
          <mxGeometry relative="1" as="geometry" />
        </mxCell>
        <mxCell id="rzye8vJvDMzJoD8c662w-18" value="" style="rounded=0;whiteSpace=wrap;html=1;" vertex="1" parent="1">
          <mxGeometry x="50" y="880" width="120" height="60" as="geometry" />
        </mxCell>
        <mxCell id="rzye8vJvDMzJoD8c662w-47" style="edgeStyle=orthogonalEdgeStyle;rounded=0;orthogonalLoop=1;jettySize=auto;html=1;entryX=1;entryY=0.75;entryDx=0;entryDy=0;" edge="1" parent="1" source="rzye8vJvDMzJoD8c662w-19" target="rzye8vJvDMzJoD8c662w-43">
          <mxGeometry relative="1" as="geometry">
            <Array as="points">
              <mxPoint x="1140" y="1215" />
            </Array>
          </mxGeometry>
        </mxCell>
        <mxCell id="rzye8vJvDMzJoD8c662w-19" value="" style="rounded=0;whiteSpace=wrap;html=1;" vertex="1" parent="1">
          <mxGeometry x="1080" y="1060" width="120" height="60" as="geometry" />
        </mxCell>
        <mxCell id="rzye8vJvDMzJoD8c662w-48" style="edgeStyle=orthogonalEdgeStyle;rounded=0;orthogonalLoop=1;jettySize=auto;html=1;entryX=1;entryY=0.5;entryDx=0;entryDy=0;" edge="1" parent="1" source="rzye8vJvDMzJoD8c662w-21" target="rzye8vJvDMzJoD8c662w-40">
          <mxGeometry relative="1" as="geometry">
            <Array as="points">
              <mxPoint x="570" y="1350" />
            </Array>
          </mxGeometry>
        </mxCell>
        <mxCell id="rzye8vJvDMzJoD8c662w-21" value="" style="shape=loopLimit;whiteSpace=wrap;html=1;flipV=1;" vertex="1" parent="1">
          <mxGeometry x="520" y="1250" width="100" height="80" as="geometry" />
        </mxCell>
        <mxCell id="rzye8vJvDMzJoD8c662w-49" style="edgeStyle=orthogonalEdgeStyle;rounded=0;orthogonalLoop=1;jettySize=auto;html=1;entryX=0.5;entryY=0;entryDx=0;entryDy=0;" edge="1" parent="1" source="rzye8vJvDMzJoD8c662w-22" target="rzye8vJvDMzJoD8c662w-10">
          <mxGeometry relative="1" as="geometry">
            <Array as="points">
              <mxPoint x="270" y="1520" />
              <mxPoint x="110" y="1520" />
            </Array>
          </mxGeometry>
        </mxCell>
        <mxCell id="rzye8vJvDMzJoD8c662w-22" value="" style="shape=loopLimit;whiteSpace=wrap;html=1;flipV=1;" vertex="1" parent="1">
          <mxGeometry x="220" y="1400" width="100" height="80" as="geometry" />
        </mxCell>
        <mxCell id="rzye8vJvDMzJoD8c662w-51" style="edgeStyle=orthogonalEdgeStyle;rounded=0;orthogonalLoop=1;jettySize=auto;html=1;entryX=0.5;entryY=0;entryDx=0;entryDy=0;" edge="1" parent="1" source="rzye8vJvDMzJoD8c662w-23" target="rzye8vJvDMzJoD8c662w-24">
          <mxGeometry relative="1" as="geometry" />
        </mxCell>
        <mxCell id="rzye8vJvDMzJoD8c662w-23" value="" style="rounded=0;whiteSpace=wrap;html=1;" vertex="1" parent="1">
          <mxGeometry x="50" y="1670" width="120" height="60" as="geometry" />
        </mxCell>
        <mxCell id="rzye8vJvDMzJoD8c662w-24" value="" style="rounded=1;whiteSpace=wrap;html=1;arcSize=50;" vertex="1" parent="1">
          <mxGeometry x="50" y="1770" width="120" height="60" as="geometry" />
        </mxCell>
        <mxCell id="rzye8vJvDMzJoD8c662w-42" style="edgeStyle=orthogonalEdgeStyle;rounded=0;orthogonalLoop=1;jettySize=auto;html=1;entryX=0.5;entryY=0;entryDx=0;entryDy=0;" edge="1" parent="1" source="rzye8vJvDMzJoD8c662w-40" target="rzye8vJvDMzJoD8c662w-22">
          <mxGeometry relative="1" as="geometry" />
        </mxCell>
        <mxCell id="rzye8vJvDMzJoD8c662w-40" value="" style="rounded=0;whiteSpace=wrap;html=1;" vertex="1" parent="1">
          <mxGeometry x="210" y="1320" width="120" height="60" as="geometry" />
        </mxCell>
        <mxCell id="rzye8vJvDMzJoD8c662w-44" style="edgeStyle=orthogonalEdgeStyle;rounded=0;orthogonalLoop=1;jettySize=auto;html=1;entryX=0.5;entryY=0;entryDx=0;entryDy=0;" edge="1" parent="1" source="rzye8vJvDMzJoD8c662w-43" target="rzye8vJvDMzJoD8c662w-21">
          <mxGeometry relative="1" as="geometry" />
        </mxCell>
        <mxCell id="rzye8vJvDMzJoD8c662w-43" value="" style="rounded=0;whiteSpace=wrap;html=1;" vertex="1" parent="1">
          <mxGeometry x="510" y="1170" width="120" height="60" as="geometry" />
        </mxCell>
      </root>
    </mxGraphModel>
  </diagram>
</mxfile>
